<?xml version="1.0" standalone="no"?>
<!DOCTYPE svg PUBLIC "-//W3C//DTD SVG 20010904//EN"
 "http://www.w3.org/TR/2001/REC-SVG-20010904/DTD/svg10.dtd">
<svg version="1.0" xmlns="http://www.w3.org/2000/svg"
 width="256.000000pt" height="256.000000pt" viewBox="0 0 256.000000 256.000000"
 preserveAspectRatio="xMidYMid meet">
<metadata>
Created by potrace 1.11, written by Peter Selinger 2001-2013
</metadata>
<g transform="translate(0.000000,256.000000) scale(0.100000,-0.100000)"
fill="#000000" stroke="none">
<path d="M1269 2240 c14 -15 31 -36 37 -46 10 -16 11 -12 12 27 l1 45 -38 1
-38 1 26 -28z"/>
<path d="M1240 2240 c0 -5 5 -10 10 -10 6 0 10 5 10 10 0 6 -4 10 -10 10 -5 0
-10 -4 -10 -10z"/>
<path d="M1254 2222 c-7 -4 -11 -39 -11 -88 0 -77 1 -81 22 -78 12 1 28 -2 36
-7 11 -6 9 -14 -9 -38 -27 -37 -27 -37 0 -44 12 -4 20 -9 16 -12 -3 -3 -17 0
-32 6 -25 12 -26 13 -9 32 17 19 17 20 1 14 -12 -4 -15 -2 -11 9 4 11 9 12 19
3 8 -7 14 -7 14 -1 0 14 -29 36 -38 28 -4 -4 -7 -24 -7 -44 -1 -21 -4 -43 -8
-50 -5 -6 -3 -12 2 -12 6 0 11 5 11 12 0 6 3 8 6 5 4 -4 1 -13 -6 -21 -6 -9
-10 -21 -7 -28 3 -8 10 -2 17 14 9 19 17 25 24 18 24 -19 33 6 33 86 0 77 -1
81 -22 78 -39 -4 -51 11 -31 40 16 25 35 38 20 14 -5 -7 -2 -9 9 -5 11 4 14 2
10 -9 -4 -11 -9 -12 -19 -3 -8 7 -14 7 -14 1 0 -14 29 -36 37 -28 12 11 13 46
3 59 -6 7 -18 22 -28 34 -9 13 -22 20 -28 15z m27 -29 c13 -15 12 -15 -8 -4
-24 12 -29 21 -14 21 5 0 15 -7 22 -17z m-11 -17 c0 -3 -4 -8 -10 -11 -5 -3
-10 -1 -10 4 0 6 5 11 10 11 6 0 10 -2 10 -4z m35 -96 c3 -4 -7 -7 -20 -7 -14
0 -27 3 -30 7 -3 4 7 8 20 8 14 0 27 -4 30 -8z m5 -90 c0 -5 -5 -10 -11 -10
-5 0 -7 5 -4 10 3 6 8 10 11 10 2 0 4 -4 4 -10z"/>
<path d="M1266 1913 c-8 -20 -8 -19 10 -38 13 -13 14 -16 3 -15 -8 1 -106 2
-219 1 l-205 -1 0 -239 c0 -206 -2 -240 -15 -243 -8 -2 -103 -3 -211 -2 l-195
1 -1 -206 c-1 -113 -1 -223 -2 -243 l-1 -38 -212 0 -213 0 0 -280 0 -280 1273
0 c1010 0 1272 3 1273 13 1 10 0 499 -1 535 0 9 -49 12 -209 12 -209 0 -209 0
-212 23 -2 12 -4 121 -4 243 l1 220 -195 1 c-108 1 -203 2 -211 2 -14 1 -16
32 -15 239 l0 237 -190 5 c-200 5 -194 4 -198 51 -1 21 -44 22 -51 2z m21 -15
c2 -17 0 -19 -7 -8 -5 8 -6 18 -4 22 8 12 10 10 11 -14z"/>
<path d="M1235 1880 c3 -5 10 -10 16 -10 5 0 9 5 9 10 0 6 -7 10 -16 10 -8 0
-12 -4 -9 -10z"/>
</g>
</svg>
